<?xml version="1.0" encoding="UTF-8"?>
<!DOCTYPE svg PUBLIC "-//W3C//DTD SVG 1.1//EN" "http://www.w3.org/Graphics/SVG/1.1/DTD/svg11.dtd">
<svg xmlns="http://www.w3.org/2000/svg" version="1.1" width="225px" height="225px" style="shape-rendering:geometricPrecision; text-rendering:geometricPrecision; image-rendering:optimizeQuality; fill-rule:evenodd; clip-rule:evenodd" xmlns:xlink="http://www.w3.org/1999/xlink">
<g><path style="opacity:0.024" fill="#162241" d="M 42.5,53.5 C 42.5,53.1667 42.5,52.8333 42.5,52.5C 44.7157,53.2026 46.549,54.5359 48,56.5C 49.8556,59.5557 51.6889,62.5557 53.5,65.5C 49.8333,61.5 46.1667,57.5 42.5,53.5 Z"/></g>
<g><path style="opacity:0.333" fill="#252c44" d="M 181.5,52.5 C 181.5,52.8333 181.5,53.1667 181.5,53.5C 179.861,55.8061 177.861,57.8061 175.5,59.5C 176.412,57.4048 177.579,55.4048 179,53.5C 179.671,52.7476 180.504,52.4142 181.5,52.5 Z"/></g>
<g><path style="opacity:0.302" fill="#28335f" d="M 175.5,59.5 C 174.92,61.7488 173.587,63.4154 171.5,64.5C 172.08,62.2512 173.413,60.5846 175.5,59.5 Z"/></g>
<g><path style="opacity:0.298" fill="#263050" d="M 53.5,65.5 C 55.2624,66.2623 56.2624,67.5956 56.5,69.5C 54.7376,68.7377 53.7376,67.4044 53.5,65.5 Z"/></g>
<g><path style="opacity:0.337" fill="#2c3652" d="M 171.5,64.5 C 170.92,66.7488 169.587,68.4154 167.5,69.5C 168.08,67.2512 169.413,65.5846 171.5,64.5 Z"/></g>
<g><path style="opacity:0.188" fill="#303d55" d="M 56.5,69.5 C 58.2624,70.2623 59.2624,71.5956 59.5,73.5C 57.7376,72.7377 56.7376,71.4044 56.5,69.5 Z"/></g>
<g><path style="opacity:0.424" fill="#565c79" d="M 59.5,73.5 C 61.2624,74.2623 62.2624,75.5956 62.5,77.5C 60.7376,76.7377 59.7376,75.4044 59.5,73.5 Z"/></g>
<g><path style="opacity:0.341" fill="#444e6a" d="M 167.5,69.5 C 166.306,73.3633 163.973,76.3633 160.5,78.5C 162.458,75.2085 164.791,72.2085 167.5,69.5 Z"/></g>
<g><path style="opacity:1" fill="#ededef" d="M 42.5,53.5 C 46.1667,57.5 49.8333,61.5 53.5,65.5C 53.7376,67.4044 54.7376,68.7377 56.5,69.5C 56.7376,71.4044 57.7376,72.7377 59.5,73.5C 59.7376,75.4044 60.7376,76.7377 62.5,77.5C 63.5,77.8333 64.1667,78.5 64.5,79.5C 64.427,81.0269 65.0937,82.0269 66.5,82.5C 67.4194,85.0892 69.086,87.0892 71.5,88.5C 72.4194,91.0892 74.086,93.0892 76.5,94.5C 77.0798,96.7488 78.4131,98.4154 80.5,99.5C 81.4194,102.089 83.086,104.089 85.5,105.5C 87.1108,109.051 89.4442,112.051 92.5,114.5C 92.7376,116.404 93.7376,117.738 95.5,118.5C 95.7376,120.404 96.7376,121.738 98.5,122.5C 99.4194,125.089 101.086,127.089 103.5,128.5C 104.08,130.749 105.413,132.415 107.5,133.5C 108.419,136.089 110.086,138.089 112.5,139.5C 112.738,141.404 113.738,142.738 115.5,143.5C 115.738,145.404 116.738,146.738 118.5,147.5C 119.08,149.749 120.413,151.415 122.5,152.5C 126.135,156.307 129.635,160.307 133,164.5C 134.009,166.025 134.509,167.692 134.5,169.5C 132.512,169.827 130.512,170.16 128.5,170.5C 114.852,169.72 101.185,169.22 87.5,169C 84.5383,166.218 82.2049,163.051 80.5,159.5C 79.3955,157.847 79.2288,156.18 80,154.5C 78.8289,153.107 77.3289,152.273 75.5,152C 76.2797,150.927 76.113,149.76 75,148.5C 73.5,147 72,145.5 70.5,144C 71.5348,142.493 71.3681,140.993 70,139.5C 67.0711,136.484 63.5711,134.484 59.5,133.5C 59.6107,132.883 59.944,132.383 60.5,132C 58.0958,131.492 57.4291,130.325 58.5,128.5C 56.9361,123.353 53.6027,120.019 48.5,118.5C 47.6551,114.837 45.8217,111.837 43,109.5C 42.6174,110.056 42.1174,110.389 41.5,110.5C 41.5,109.833 41.5,109.167 41.5,108.5C 41.1698,89.9924 41.5032,71.6591 42.5,53.5 Z"/></g>
<g><path style="opacity:0.299" fill="#5c617f" d="M 181.5,53.5 C 181.5,53.1667 181.5,52.8333 181.5,52.5C 182.496,52.4142 183.329,52.7476 184,53.5C 184.167,57.1667 184.333,60.8333 184.5,64.5C 183.383,78.3585 183.383,92.1918 184.5,106C 184.046,108.03 183.38,109.863 182.5,111.5C 182.83,91.9928 182.497,72.6595 181.5,53.5 Z"/></g>
<g><path style="opacity:1" fill="#edeef0" d="M 181.5,53.5 C 182.497,72.6595 182.83,91.9928 182.5,111.5C 177.49,117.54 172.49,123.54 167.5,129.5C 152.167,129.5 136.833,129.5 121.5,129.5C 120.167,128.833 120.167,128.167 121.5,127.5C 122.906,127.027 123.573,126.027 123.5,124.5C 123.833,123.5 124.5,122.833 125.5,122.5C 127.587,121.415 128.92,119.749 129.5,117.5C 131.587,116.415 132.92,114.749 133.5,112.5C 135.262,111.738 136.262,110.404 136.5,108.5C 138.587,107.415 139.92,105.749 140.5,103.5C 142.262,102.738 143.262,101.404 143.5,99.5C 145.587,98.4154 146.92,96.7488 147.5,94.5C 151.215,91.3933 154.215,87.7267 156.5,83.5C 158.587,82.4154 159.92,80.7488 160.5,78.5C 163.973,76.3633 166.306,73.3633 167.5,69.5C 169.587,68.4154 170.92,66.7488 171.5,64.5C 173.587,63.4154 174.92,61.7488 175.5,59.5C 177.861,57.8061 179.861,55.8061 181.5,53.5 Z"/></g>
<g><path style="opacity:0.22" fill="#44526c" d="M 64.5,79.5 C 65.9063,79.9731 66.573,80.9731 66.5,82.5C 65.0937,82.0269 64.427,81.0269 64.5,79.5 Z"/></g>
<g><path style="opacity:0.184" fill="#3d4364" d="M 160.5,78.5 C 159.92,80.7488 158.587,82.4154 156.5,83.5C 157.08,81.2512 158.413,79.5846 160.5,78.5 Z"/></g>
<g><path style="opacity:0.136" fill="#636c86" d="M 42.5,52.5 C 42.5,52.8333 42.5,53.1667 42.5,53.5C 41.5032,71.6591 41.1698,89.9924 41.5,108.5C 40.3476,91.3353 39.8476,74.002 40,56.5C 40.1216,54.563 40.955,53.2297 42.5,52.5 Z"/></g>
<g><path style="opacity:0.129" fill="#454c69" d="M 66.5,82.5 C 68.914,83.9108 70.5806,85.9108 71.5,88.5C 69.086,87.0892 67.4194,85.0892 66.5,82.5 Z"/></g>
<g><path style="opacity:0.094" fill="#303558" d="M 156.5,83.5 C 154.215,87.7267 151.215,91.3933 147.5,94.5C 149.785,90.2733 152.785,86.6067 156.5,83.5 Z"/></g>
<g><path style="opacity:0.514" fill="#404362" d="M 71.5,88.5 C 73.914,89.9108 75.5806,91.9108 76.5,94.5C 74.086,93.0892 72.4194,91.0892 71.5,88.5 Z"/></g>
<g><path style="opacity:0.439" fill="#3a3c5a" d="M 76.5,94.5 C 78.5869,95.5846 79.9202,97.2512 80.5,99.5C 78.4131,98.4154 77.0798,96.7488 76.5,94.5 Z"/></g>
<g><path style="opacity:0.443" fill="#363d5d" d="M 147.5,94.5 C 146.92,96.7488 145.587,98.4154 143.5,99.5C 144.08,97.2512 145.413,95.5846 147.5,94.5 Z"/></g>
<g><path style="opacity:0.239" fill="#384063" d="M 143.5,99.5 C 143.262,101.404 142.262,102.738 140.5,103.5C 140.738,101.596 141.738,100.262 143.5,99.5 Z"/></g>
<g><path style="opacity:0.09" fill="#1a2442" d="M 80.5,99.5 C 82.914,100.911 84.5806,102.911 85.5,105.5C 83.086,104.089 81.4194,102.089 80.5,99.5 Z"/></g>
<g><path style="opacity:0.325" fill="#424a64" d="M 140.5,103.5 C 139.92,105.749 138.587,107.415 136.5,108.5C 137.08,106.251 138.413,104.585 140.5,103.5 Z"/></g>
<g><path style="opacity:0.329" fill="#262f4d" d="M 85.5,105.5 C 88.5558,107.949 90.8892,110.949 92.5,114.5C 89.4442,112.051 87.1108,109.051 85.5,105.5 Z"/></g>
<g><path style="opacity:0.224" fill="#50597f" d="M 136.5,108.5 C 136.262,110.404 135.262,111.738 133.5,112.5C 133.738,110.596 134.738,109.262 136.5,108.5 Z"/></g>
<g><path style="opacity:0.2" fill="#565c7d" d="M 133.5,112.5 C 132.92,114.749 131.587,116.415 129.5,117.5C 130.08,115.251 131.413,113.585 133.5,112.5 Z"/></g>
<g><path style="opacity:0.278" fill="#343f58" d="M 92.5,114.5 C 94.2624,115.262 95.2624,116.596 95.5,118.5C 93.7376,117.738 92.7376,116.404 92.5,114.5 Z"/></g>
<g><path style="opacity:0.463" fill="#575e83" d="M 95.5,118.5 C 97.2624,119.262 98.2624,120.596 98.5,122.5C 96.7376,121.738 95.7376,120.404 95.5,118.5 Z"/></g>
<g><path style="opacity:0.2" fill="#565d7b" d="M 129.5,117.5 C 128.92,119.749 127.587,121.415 125.5,122.5C 126.08,120.251 127.413,118.585 129.5,117.5 Z"/></g>
<g><path style="opacity:1" fill="#cdd1e0" d="M 59.5,133.5 C 52.7675,126.431 46.7675,118.764 41.5,110.5C 42.1174,110.389 42.6174,110.056 43,109.5C 45.8217,111.837 47.6551,114.837 48.5,118.5C 53.6027,120.019 56.9361,123.353 58.5,128.5C 57.4291,130.325 58.0958,131.492 60.5,132C 59.944,132.383 59.6107,132.883 59.5,133.5 Z"/></g>
<g><path style="opacity:0.188" fill="#454f6a" d="M 123.5,124.5 C 123.573,126.027 122.906,127.027 121.5,127.5C 121.427,125.973 122.094,124.973 123.5,124.5 Z"/></g>
<g><path style="opacity:0.161" fill="#454d6e" d="M 98.5,122.5 C 100.914,123.911 102.581,125.911 103.5,128.5C 101.086,127.089 99.4194,125.089 98.5,122.5 Z"/></g>
<g><path style="opacity:0.529" fill="#4b4e70" d="M 103.5,128.5 C 105.587,129.585 106.92,131.251 107.5,133.5C 105.413,132.415 104.08,130.749 103.5,128.5 Z"/></g>
<g><path style="opacity:0.298" fill="#939ab3" d="M 121.5,129.5 C 136.833,129.5 152.167,129.5 167.5,129.5C 164.772,130.205 161.939,130.872 159,131.5C 150,130.167 141,130.167 132,131.5C 128.397,130.865 124.897,130.198 121.5,129.5 Z"/></g>
<g><path style="opacity:0.475" fill="#40456a" d="M 107.5,133.5 C 109.914,134.911 111.581,136.911 112.5,139.5C 110.086,138.089 108.419,136.089 107.5,133.5 Z"/></g>
<g><path style="opacity:0.998" fill="#cfd3e1" d="M 59.5,133.5 C 63.5711,134.484 67.0711,136.484 70,139.5C 71.3681,140.993 71.5348,142.493 70.5,144C 72,145.5 73.5,147 75,148.5C 76.113,149.76 76.2797,150.927 75.5,152C 77.3289,152.273 78.8289,153.107 80,154.5C 79.2288,156.18 79.3955,157.847 80.5,159.5C 72.7718,151.437 65.7718,142.77 59.5,133.5 Z"/></g>
<g><path style="opacity:0.267" fill="#374363" d="M 112.5,139.5 C 114.262,140.262 115.262,141.596 115.5,143.5C 113.738,142.738 112.738,141.404 112.5,139.5 Z"/></g>
<g><path style="opacity:0.161" fill="#4a5672" d="M 115.5,143.5 C 117.262,144.262 118.262,145.596 118.5,147.5C 116.738,146.738 115.738,145.404 115.5,143.5 Z"/></g>
<g><path style="opacity:0.102" fill="#4d5d72" d="M 118.5,147.5 C 120.587,148.585 121.92,150.251 122.5,152.5C 120.413,151.415 119.08,149.749 118.5,147.5 Z"/></g>
</svg>
