<?xml version="1.0" standalone="no"?>
<!DOCTYPE svg PUBLIC "-//W3C//DTD SVG 20010904//EN"
 "http://www.w3.org/TR/2001/REC-SVG-20010904/DTD/svg10.dtd">
<svg version="1.0" xmlns="http://www.w3.org/2000/svg"
 width="1920.000000pt" height="1920.000000pt" viewBox="0 0 1920.000000 1920.000000"
 preserveAspectRatio="xMidYMid meet">

<g transform="translate(0.000000,1920.000000) scale(0.100000,-0.100000)"
fill="#000000" stroke="none">
<path d="M15169 14257 c-8 -7 -1105 -1374 -2437 -3038 -2605 -3254 -2453
-3058 -2402 -3109 20 -20 33 -20 1803 -20 1135 0 1795 4 1817 10 93 26 107 42
707 790 318 397 588 743 600 768 l23 47 0 2267 0 2267 -22 15 c-27 19 -67 20
-89 3z"/>
<path d="M3931 14233 l-21 -26 2 -2246 3 -2246 25 -55 c17 -37 588 -759 1843
-2330 1001 -1251 1833 -2290 1851 -2308 17 -19 54 -46 81 -60 l50 -27 1806 -3
1805 -2 22 20 c12 12 22 33 22 48 0 21 -807 1036 -3696 4645 l-3695 4617 -39
0 c-30 0 -43 -6 -59 -27z"/>
</g>
</svg>
