<?xml version="1.0" encoding="UTF-8"?>
<!DOCTYPE svg PUBLIC "-//W3C//DTD SVG 1.1//EN" "http://www.w3.org/Graphics/SVG/1.1/DTD/svg11.dtd">
<svg xmlns="http://www.w3.org/2000/svg" version="1.1" width="500px" height="500px" style="shape-rendering:geometricPrecision; text-rendering:geometricPrecision; image-rendering:optimizeQuality; fill-rule:evenodd; clip-rule:evenodd" xmlns:xlink="http://www.w3.org/1999/xlink">
<g><path style="opacity:0.506" fill="#fe9ea4" d="M 157.5,131.5 C 156.18,158.373 156.18,185.373 157.5,212.5C 156.883,212.389 156.383,212.056 156,211.5C 155.333,184.167 155.333,156.833 156,129.5C 156.717,130.044 157.217,130.711 157.5,131.5 Z"/></g>
<g><path style="opacity:1" fill="#fffcfc" d="M 157.5,131.5 C 158.5,131.833 159.167,132.5 159.5,133.5C 159.427,135.027 160.094,136.027 161.5,136.5C 166.873,141.575 171.539,147.241 175.5,153.5C 175.427,155.027 176.094,156.027 177.5,156.5C 180.2,158.234 182.2,160.568 183.5,163.5C 184.419,166.089 186.086,168.089 188.5,169.5C 189.803,171.142 191.136,172.809 192.5,174.5C 192.738,176.404 193.738,177.738 195.5,178.5C 196.5,178.833 197.167,179.5 197.5,180.5C 197.427,182.027 198.094,183.027 199.5,183.5C 200.757,186.427 202.757,188.761 205.5,190.5C 206.488,191.795 207.488,193.128 208.5,194.5C 208.738,196.404 209.738,197.738 211.5,198.5C 212.5,198.833 213.167,199.5 213.5,200.5C 213.427,202.027 214.094,203.027 215.5,203.5C 216.833,204.167 217.833,205.167 218.5,206.5C 218.427,208.027 219.094,209.027 220.5,209.5C 220.833,210.5 221.5,211.167 222.5,211.5C 222.427,213.027 223.094,214.027 224.5,214.5C 225.5,214.833 226.167,215.5 226.5,216.5C 226.738,218.404 227.738,219.738 229.5,220.5C 231.471,222.808 233.471,225.142 235.5,227.5C 235.427,229.027 236.094,230.027 237.5,230.5C 238.5,230.833 239.167,231.5 239.5,232.5C 239.427,234.027 240.094,235.027 241.5,235.5C 242.5,235.833 243.167,236.5 243.5,237.5C 243.427,239.027 244.094,240.027 245.5,240.5C 246.5,240.833 247.167,241.5 247.5,242.5C 247.427,244.027 248.094,245.027 249.5,245.5C 250.5,245.833 251.167,246.5 251.5,247.5C 252.08,249.749 253.413,251.415 255.5,252.5C 255.427,254.027 256.094,255.027 257.5,255.5C 258.5,255.833 259.167,256.5 259.5,257.5C 259.738,259.404 260.738,260.738 262.5,261.5C 263.5,261.833 264.167,262.5 264.5,263.5C 264.427,265.027 265.094,266.027 266.5,266.5C 267.5,266.833 268.167,267.5 268.5,268.5C 268.427,270.027 269.094,271.027 270.5,271.5C 271.5,271.833 272.167,272.5 272.5,273.5C 272.427,275.027 273.094,276.027 274.5,276.5C 275.5,276.833 276.167,277.5 276.5,278.5C 277.08,280.749 278.413,282.415 280.5,283.5C 260.007,284.497 239.34,284.831 218.5,284.5C 218.262,282.596 217.262,281.262 215.5,280.5C 208.796,273.13 202.463,265.464 196.5,257.5C 195.5,255.833 194.167,254.5 192.5,253.5C 189.46,250.461 186.794,247.127 184.5,243.5C 183.833,242.167 182.833,241.167 181.5,240.5C 178.862,237.526 176.195,234.526 173.5,231.5C 173.573,229.973 172.906,228.973 171.5,228.5C 168.51,225.208 165.51,221.874 162.5,218.5C 162.262,216.596 161.262,215.262 159.5,214.5C 158.5,214.167 157.833,213.5 157.5,212.5C 156.18,185.373 156.18,158.373 157.5,131.5 Z"/></g>
<g><path style="opacity:0.503" fill="#fe989d" d="M 342.5,209.5 C 342.667,184.164 342.5,158.831 342,133.5C 341.617,134.056 341.117,134.389 340.5,134.5C 340.415,133.005 341.081,132.005 342.5,131.5C 343.308,137.152 343.975,142.819 344.5,148.5C 343.868,168.987 343.201,189.32 342.5,209.5 Z"/></g>
<g><path style="opacity:0.675" fill="#ff9294" d="M 159.5,133.5 C 160.906,133.973 161.573,134.973 161.5,136.5C 160.094,136.027 159.427,135.027 159.5,133.5 Z"/></g>
<g><path style="opacity:1" fill="#fffcfb" d="M 342.5,209.5 C 336.453,218.393 329.786,226.893 322.5,235C 315.268,235.394 308.268,235.227 301.5,234.5C 293.35,233.507 285.017,233.174 276.5,233.5C 272.167,233.5 267.833,233.5 263.5,233.5C 263.196,232.85 262.863,232.183 262.5,231.5C 264.278,229.736 265.611,227.736 266.5,225.5C 266.833,224.5 267.5,223.833 268.5,223.5C 270.262,222.738 271.262,221.404 271.5,219.5C 271.833,218.5 272.5,217.833 273.5,217.5C 274.906,217.027 275.573,216.027 275.5,214.5C 277.273,211.94 279.273,209.607 281.5,207.5C 283.914,206.089 285.581,204.089 286.5,201.5C 287.906,201.027 288.573,200.027 288.5,198.5C 288.833,197.5 289.5,196.833 290.5,196.5C 292.262,195.738 293.262,194.404 293.5,192.5C 293.833,191.5 294.5,190.833 295.5,190.5C 296.906,190.027 297.573,189.027 297.5,187.5C 298.8,184.568 300.8,182.234 303.5,180.5C 304.906,180.027 305.573,179.027 305.5,177.5C 308.243,175.761 310.243,173.427 311.5,170.5C 312.906,170.027 313.573,169.027 313.5,167.5C 313.833,166.5 314.5,165.833 315.5,165.5C 317.262,164.738 318.262,163.404 318.5,161.5C 318.833,160.5 319.5,159.833 320.5,159.5C 322.262,158.738 323.262,157.404 323.5,155.5C 325.587,154.415 326.92,152.749 327.5,150.5C 327.833,149.5 328.5,148.833 329.5,148.5C 330.906,148.027 331.573,147.027 331.5,145.5C 331.833,144.5 332.5,143.833 333.5,143.5C 335.262,142.738 336.262,141.404 336.5,139.5C 337.124,137.246 338.457,135.579 340.5,134.5C 341.117,134.389 341.617,134.056 342,133.5C 342.5,158.831 342.667,184.164 342.5,209.5 Z"/></g>
<g><path style="opacity:0.737" fill="#fe9598" d="M 336.5,139.5 C 336.262,141.404 335.262,142.738 333.5,143.5C 333.738,141.596 334.738,140.262 336.5,139.5 Z"/></g>
<g><path style="opacity:0.647" fill="#fe8f92" d="M 331.5,145.5 C 331.573,147.027 330.906,148.027 329.5,148.5C 329.427,146.973 330.094,145.973 331.5,145.5 Z"/></g>
<g><path style="opacity:0.725" fill="#ff9698" d="M 175.5,153.5 C 176.906,153.973 177.573,154.973 177.5,156.5C 176.094,156.027 175.427,155.027 175.5,153.5 Z"/></g>
<g><path style="opacity:0.282" fill="#ff8388" d="M 327.5,150.5 C 326.92,152.749 325.587,154.415 323.5,155.5C 324.08,153.251 325.413,151.585 327.5,150.5 Z"/></g>
<g><path style="opacity:0.788" fill="#ff9a9c" d="M 323.5,155.5 C 323.262,157.404 322.262,158.738 320.5,159.5C 320.738,157.596 321.738,156.262 323.5,155.5 Z"/></g>
<g><path style="opacity:0.714" fill="#ff8c8f" d="M 318.5,161.5 C 318.262,163.404 317.262,164.738 315.5,165.5C 315.738,163.596 316.738,162.262 318.5,161.5 Z"/></g>
<g><path style="opacity:0.38" fill="#ff868a" d="M 183.5,163.5 C 185.914,164.911 187.581,166.911 188.5,169.5C 186.086,168.089 184.419,166.089 183.5,163.5 Z"/></g>
<g><path style="opacity:0.62" fill="#fe8c8f" d="M 313.5,167.5 C 313.573,169.027 312.906,170.027 311.5,170.5C 311.427,168.973 312.094,167.973 313.5,167.5 Z"/></g>
<g><path style="opacity:0.631" fill="#ff8d90" d="M 311.5,170.5 C 310.243,173.427 308.243,175.761 305.5,177.5C 306.757,174.573 308.757,172.239 311.5,170.5 Z"/></g>
<g><path style="opacity:0.796" fill="#ff989a" d="M 192.5,174.5 C 194.262,175.262 195.262,176.596 195.5,178.5C 193.738,177.738 192.738,176.404 192.5,174.5 Z"/></g>
<g><path style="opacity:0.573" fill="#fd878b" d="M 305.5,177.5 C 305.573,179.027 304.906,180.027 303.5,180.5C 303.427,178.973 304.094,177.973 305.5,177.5 Z"/></g>
<g><path style="opacity:0.71" fill="#ff9699" d="M 197.5,180.5 C 198.906,180.973 199.573,181.973 199.5,183.5C 198.094,183.027 197.427,182.027 197.5,180.5 Z"/></g>
<g><path style="opacity:0.882" fill="#ff8d8f" d="M 199.5,183.5 C 202.243,185.239 204.243,187.573 205.5,190.5C 202.757,188.761 200.757,186.427 199.5,183.5 Z"/></g>
<g><path style="opacity:0.718" fill="#ff9b9c" d="M 297.5,187.5 C 297.573,189.027 296.906,190.027 295.5,190.5C 295.427,188.973 296.094,187.973 297.5,187.5 Z"/></g>
<g><path style="opacity:0.8" fill="#ff999c" d="M 293.5,192.5 C 293.262,194.404 292.262,195.738 290.5,196.5C 290.738,194.596 291.738,193.262 293.5,192.5 Z"/></g>
<g><path style="opacity:0.937" fill="#ffa5a6" d="M 208.5,194.5 C 210.262,195.262 211.262,196.596 211.5,198.5C 209.738,197.738 208.738,196.404 208.5,194.5 Z"/></g>
<g><path style="opacity:0.745" fill="#ff9b9c" d="M 288.5,198.5 C 288.573,200.027 287.906,201.027 286.5,201.5C 286.427,199.973 287.094,198.973 288.5,198.5 Z"/></g>
<g><path style="opacity:0.761" fill="#ffa0a2" d="M 213.5,200.5 C 214.906,200.973 215.573,201.973 215.5,203.5C 214.094,203.027 213.427,202.027 213.5,200.5 Z"/></g>
<g><path style="opacity:0.753" fill="#ffa3a4" d="M 286.5,201.5 C 285.581,204.089 283.914,206.089 281.5,207.5C 282.419,204.911 284.086,202.911 286.5,201.5 Z"/></g>
<g><path style="opacity:0.42" fill="#fe878c" d="M 218.5,206.5 C 219.906,206.973 220.573,207.973 220.5,209.5C 219.094,209.027 218.427,208.027 218.5,206.5 Z"/></g>
<g><path style="opacity:0.004" fill="#fc5b66" d="M 220.5,209.5 C 221.833,209.5 222.5,210.167 222.5,211.5C 221.5,211.167 220.833,210.5 220.5,209.5 Z"/></g>
<g><path style="opacity:0.745" fill="#ff9c9d" d="M 222.5,211.5 C 223.906,211.973 224.573,212.973 224.5,214.5C 223.094,214.027 222.427,213.027 222.5,211.5 Z"/></g>
<g><path style="opacity:0.012" fill="#fd686f" d="M 159.5,214.5 C 161.262,215.262 162.262,216.596 162.5,218.5C 160.738,217.738 159.738,216.404 159.5,214.5 Z"/></g>
<g><path style="opacity:0.62" fill="#ff8b8f" d="M 275.5,214.5 C 275.573,216.027 274.906,217.027 273.5,217.5C 273.427,215.973 274.094,214.973 275.5,214.5 Z"/></g>
<g><path style="opacity:0.596" fill="#ff878b" d="M 226.5,216.5 C 228.262,217.262 229.262,218.596 229.5,220.5C 227.738,219.738 226.738,218.404 226.5,216.5 Z"/></g>
<g><path style="opacity:0.749" fill="#ff9092" d="M 271.5,219.5 C 271.262,221.404 270.262,222.738 268.5,223.5C 268.738,221.596 269.738,220.262 271.5,219.5 Z"/></g>
<g><path style="opacity:0.576" fill="#fe878b" d="M 235.5,227.5 C 236.906,227.973 237.573,228.973 237.5,230.5C 236.094,230.027 235.427,229.027 235.5,227.5 Z"/></g>
<g><path style="opacity:0.02" fill="#fd656d" d="M 171.5,228.5 C 172.906,228.973 173.573,229.973 173.5,231.5C 172.094,231.027 171.427,230.027 171.5,228.5 Z"/></g>
<g><path style="opacity:0.208" fill="#fe777c" d="M 266.5,225.5 C 265.611,227.736 264.278,229.736 262.5,231.5C 262.863,232.183 263.196,232.85 263.5,233.5C 262.133,234.853 261.133,234.519 260.5,232.5C 261.804,229.533 263.804,227.199 266.5,225.5 Z"/></g>
<g><path style="opacity:0.698" fill="#fe9295" d="M 239.5,232.5 C 240.906,232.973 241.573,233.973 241.5,235.5C 240.094,235.027 239.427,234.027 239.5,232.5 Z"/></g>
<g><path style="opacity:0.441" fill="#fe8289" d="M 276.5,233.5 C 285.017,233.174 293.35,233.507 301.5,234.5C 300.883,234.611 300.383,234.944 300,235.5C 292.068,234.848 284.235,234.181 276.5,233.5 Z"/></g>
<g><path style="opacity:0.439" fill="#fd8c91" d="M 243.5,237.5 C 244.906,237.973 245.573,238.973 245.5,240.5C 244.094,240.027 243.427,239.027 243.5,237.5 Z"/></g>
<g><path style="opacity:0.012" fill="#fc6d74" d="M 181.5,240.5 C 182.833,241.167 183.833,242.167 184.5,243.5C 182.5,243.5 181.5,242.5 181.5,240.5 Z"/></g>
<g><path style="opacity:0.769" fill="#ffa0a2" d="M 247.5,242.5 C 248.906,242.973 249.573,243.973 249.5,245.5C 248.094,245.027 247.427,244.027 247.5,242.5 Z"/></g>
<g><path style="opacity:0.635" fill="#fe878b" d="M 251.5,247.5 C 253.587,248.585 254.92,250.251 255.5,252.5C 253.413,251.415 252.08,249.749 251.5,247.5 Z"/></g>
<g><path style="opacity:0.718" fill="#ff989a" d="M 255.5,252.5 C 256.906,252.973 257.573,253.973 257.5,255.5C 256.094,255.027 255.427,254.027 255.5,252.5 Z"/></g>
<g><path style="opacity:0.008" fill="#fe6b72" d="M 192.5,253.5 C 194.167,254.5 195.5,255.833 196.5,257.5C 194.167,257.167 192.833,255.833 192.5,253.5 Z"/></g>
<g><path style="opacity:0.616" fill="#ff9a9c" d="M 259.5,257.5 C 261.262,258.262 262.262,259.596 262.5,261.5C 260.738,260.738 259.738,259.404 259.5,257.5 Z"/></g>
<g><path style="opacity:0.729" fill="#ff989a" d="M 264.5,263.5 C 265.906,263.973 266.573,264.973 266.5,266.5C 265.094,266.027 264.427,265.027 264.5,263.5 Z"/></g>
<g><path style="opacity:0.467" fill="#ff9195" d="M 268.5,268.5 C 269.906,268.973 270.573,269.973 270.5,271.5C 269.094,271.027 268.427,270.027 268.5,268.5 Z"/></g>
<g><path style="opacity:0.8" fill="#ffa4a5" d="M 272.5,273.5 C 273.906,273.973 274.573,274.973 274.5,276.5C 273.094,276.027 272.427,275.027 272.5,273.5 Z"/></g>
<g><path style="opacity:0.682" fill="#ff8b8e" d="M 276.5,278.5 C 278.587,279.585 279.92,281.251 280.5,283.5C 278.413,282.415 277.08,280.749 276.5,278.5 Z"/></g>
<g><path style="opacity:0.008" fill="#fd5d67" d="M 215.5,280.5 C 217.262,281.262 218.262,282.596 218.5,284.5C 216.738,283.738 215.738,282.404 215.5,280.5 Z"/></g>
<g><path style="opacity:0.716" fill="#ffa3a4" d="M 280.5,283.5 C 281.289,283.783 281.956,284.283 282.5,285C 276.54,285.953 270.54,286.453 264.5,286.5C 249.613,285.579 234.946,285.579 220.5,286.5C 219.478,286.145 218.811,285.478 218.5,284.5C 239.34,284.831 260.007,284.497 280.5,283.5 Z"/></g>
<g><path style="opacity:0.692" fill="#ff989a" d="M 114.5,319.5 C 110.702,318.517 106.702,318.183 102.5,318.5C 104.462,316.983 106.795,316.316 109.5,316.5C 111.167,316.667 112.833,316.833 114.5,317C 115.774,317.977 115.774,318.811 114.5,319.5 Z"/></g>
<g><path style="opacity:0.91" fill="#ffa0a0" d="M 217.5,317.5 C 211.131,317.347 204.797,317.68 198.5,318.5C 202.189,316.756 206.189,315.756 210.5,315.5C 213.155,315.44 215.489,316.107 217.5,317.5 Z"/></g>
<g><path style="opacity:1" fill="#ffefef" d="M 217.5,317.5 C 225.732,320.064 231.399,325.398 234.5,333.5C 235.254,338.463 235.587,343.463 235.5,348.5C 233.126,359.541 226.459,366.208 215.5,368.5C 211.5,368.5 207.5,368.5 203.5,368.5C 197.243,367.572 192.243,364.572 188.5,359.5C 188.573,357.973 187.906,356.973 186.5,356.5C 182.593,350.597 181.593,344.264 183.5,337.5C 185.074,335.898 185.741,333.898 185.5,331.5C 186.353,327.98 188.353,325.313 191.5,323.5C 193.749,322.92 195.415,321.587 196.5,319.5C 196.842,318.662 197.508,318.328 198.5,318.5C 204.797,317.68 211.131,317.347 217.5,317.5 Z M 204.5,326.5 C 208.044,326.72 211.378,326.72 214.5,326.5C 215.514,327.674 216.847,328.34 218.5,328.5C 219.5,330.167 220.833,331.5 222.5,332.5C 223.13,334.75 224.13,336.75 225.5,338.5C 225.208,340.957 225.208,343.624 225.5,346.5C 224.087,349.661 222.42,352.661 220.5,355.5C 218.973,355.427 217.973,356.094 217.5,357.5C 207.504,361.329 199.838,358.662 194.5,349.5C 193.756,345.881 193.423,342.215 193.5,338.5C 195.777,333.223 199.444,329.223 204.5,326.5 Z"/></g>
<g><path style="opacity:0.689" fill="#ff9798" d="M 284.5,330.5 C 284.5,326.5 284.5,322.5 284.5,318.5C 271.167,318.5 257.833,318.5 244.5,318.5C 244.5,318.167 244.5,317.833 244.5,317.5C 257.66,316.34 270.994,316.173 284.5,317C 285.823,321.6 285.823,326.1 284.5,330.5 Z"/></g>
<g><path style="opacity:0.686" fill="#ff9b9d" d="M 426.5,318.5 C 415.167,318.5 403.833,318.5 392.5,318.5C 392.5,321.167 392.5,323.833 392.5,326.5C 391.182,323.435 391.182,320.269 392.5,317C 403.5,316.333 414.5,316.333 425.5,317C 426.056,317.383 426.389,317.883 426.5,318.5 Z"/></g>
<g><path style="opacity:1" fill="#ffedec" d="M 75.5,317.5 C 75.3335,329.171 75.5001,340.838 76,352.5C 77.7727,350.581 79.2727,348.581 80.5,346.5C 82.2624,345.738 83.2624,344.404 83.5,342.5C 83.8333,341.5 84.5,340.833 85.5,340.5C 86.9063,340.027 87.573,339.027 87.5,337.5C 87.8333,336.5 88.5,335.833 89.5,335.5C 90.9063,335.027 91.573,334.027 91.5,332.5C 91.8333,331.5 92.5,330.833 93.5,330.5C 94.9063,330.027 95.573,329.027 95.5,327.5C 95.8333,326.5 96.5,325.833 97.5,325.5C 99.2624,324.738 100.262,323.404 100.5,321.5C 101.906,321.027 102.573,320.027 102.5,318.5C 106.702,318.183 110.702,318.517 114.5,319.5C 102.207,335.793 89.5406,351.793 76.5,367.5C 73.1667,367.5 69.8333,367.5 66.5,367.5C 65.1731,350.995 65.1731,334.329 66.5,317.5C 69.6346,316.217 72.6346,316.217 75.5,317.5 Z"/></g>
<g><path style="opacity:0.27" fill="#fc7b82" d="M 75.5,317.5 C 76.1666,327.674 76.8333,338.008 77.5,348.5C 78.5178,347.807 79.5178,347.141 80.5,346.5C 79.2727,348.581 77.7727,350.581 76,352.5C 75.5001,340.838 75.3335,329.171 75.5,317.5 Z"/></g>
<g><path style="opacity:0.999" fill="#ffeeed" d="M 140.5,367.5 C 137.167,367.5 133.833,367.5 130.5,367.5C 126.487,363.485 122.821,359.152 119.5,354.5C 119.315,352.804 118.481,351.471 117,350.5C 116.283,351.044 115.783,351.711 115.5,352.5C 112.21,358.087 108.21,363.087 103.5,367.5C 99.8183,367.665 96.1516,367.499 92.5,367C 93.2524,366.329 93.5858,365.496 93.5,364.5C 95.4581,361.208 97.7915,358.208 100.5,355.5C 101.906,355.027 102.573,354.027 102.5,352.5C 102.833,351.5 103.5,350.833 104.5,350.5C 105.906,350.027 106.573,349.027 106.5,347.5C 107.5,347.167 108.167,346.5 108.5,345.5C 113.484,338.52 118.817,331.854 124.5,325.5C 126.262,324.738 127.262,323.404 127.5,321.5C 128.833,320.833 129.833,319.833 130.5,318.5C 132.117,317.028 134.117,316.361 136.5,316.5C 138.1,316.551 139.6,316.884 141,317.5C 141.828,334.338 141.662,351.005 140.5,367.5 Z M 129.5,333.5 C 129.924,337.875 130.258,342.375 130.5,347C 130.392,348.681 129.725,349.848 128.5,350.5C 128.5,349.833 128.167,349.5 127.5,349.5C 127.573,347.973 126.906,346.973 125.5,346.5C 125.573,344.973 124.906,343.973 123.5,343.5C 125.075,339.922 127.075,336.589 129.5,333.5 Z"/></g>
<g><path style="opacity:1" fill="#fff7f6" d="M 161.5,358.5 C 168.395,358.85 175.062,359.85 181.5,361.5C 180.206,363.907 178.539,366.074 176.5,368C 167.99,368.823 159.656,368.657 151.5,367.5C 151.5,351.167 151.5,334.833 151.5,318.5C 154.5,318.5 157.5,318.5 160.5,318.5C 160.171,332.01 160.504,345.344 161.5,358.5 Z"/></g>
<g><path style="opacity:0.566" fill="#ff8a8e" d="M 161.5,320.5 C 161.5,333.167 161.5,345.833 161.5,358.5C 160.504,345.344 160.171,332.01 160.5,318.5C 157.5,318.5 154.5,318.5 151.5,318.5C 151.5,334.833 151.5,351.167 151.5,367.5C 150.173,350.995 150.173,334.329 151.5,317.5C 155.557,315.798 159.224,316.298 162.5,319C 161.944,319.383 161.611,319.883 161.5,320.5 Z"/></g>
<g><path style="opacity:0.425" fill="#fd8790" d="M 244.5,317.5 C 244.5,317.833 244.5,318.167 244.5,318.5C 244.5,334.833 244.5,351.167 244.5,367.5C 247.5,367.5 250.5,367.5 253.5,367.5C 252.508,369.026 251.008,369.693 249,369.5C 247.439,369.397 245.939,369.063 244.5,368.5C 243.818,353.467 243.151,338.467 242.5,323.5C 243.05,321.343 243.717,319.343 244.5,317.5 Z"/></g>
<g><path style="opacity:1" fill="#fff9f9" d="M 244.5,318.5 C 257.833,318.5 271.167,318.5 284.5,318.5C 284.5,322.5 284.5,326.5 284.5,330.5C 280.472,335.201 276.805,340.201 273.5,345.5C 274.26,347.36 275.26,349.027 276.5,350.5C 276.427,352.027 277.094,353.027 278.5,353.5C 279.5,353.833 280.167,354.5 280.5,355.5C 280.427,357.027 281.094,358.027 282.5,358.5C 283.5,358.833 284.167,359.5 284.5,360.5C 284.427,362.027 285.094,363.027 286.5,363.5C 286.511,365.017 287.177,366.184 288.5,367C 284.848,367.499 281.182,367.665 277.5,367.5C 275.833,366.5 274.5,365.167 273.5,363.5C 273.573,361.973 272.906,360.973 271.5,360.5C 267.82,356.817 264.486,352.817 261.5,348.5C 261.167,347.167 260.833,345.833 260.5,344.5C 260.5,343.833 260.833,343.5 261.5,343.5C 262.906,343.027 263.573,342.027 263.5,340.5C 263.833,339.5 264.5,338.833 265.5,338.5C 267.262,337.738 268.262,336.404 268.5,334.5C 269.906,334.027 270.573,333.027 270.5,331.5C 270.833,330.5 271.5,329.833 272.5,329.5C 273.478,329.189 274.145,328.522 274.5,327.5C 267.532,326.503 260.532,326.17 253.5,326.5C 253.5,340.167 253.5,353.833 253.5,367.5C 250.5,367.5 247.5,367.5 244.5,367.5C 244.5,351.167 244.5,334.833 244.5,318.5 Z"/></g>
<g><path style="opacity:0.34" fill="#fe7f86" d="M 307.5,318.5 C 304.167,318.5 300.833,318.5 297.5,318.5C 297.5,334.833 297.5,351.167 297.5,367.5C 296.499,351.326 295.999,334.992 296,318.5C 297.473,316.993 299.307,316.326 301.5,316.5C 303.883,316.361 305.883,317.028 307.5,318.5 Z"/></g>
<g><path style="opacity:1" fill="#fff7f7" d="M 307.5,318.5 C 307.427,320.027 308.094,321.027 309.5,321.5C 312.2,323.234 314.2,325.568 315.5,328.5C 315.738,330.404 316.738,331.738 318.5,332.5C 319.167,332.5 319.5,332.833 319.5,333.5C 319.427,335.027 320.094,336.027 321.5,336.5C 325.18,340.183 328.514,344.183 331.5,348.5C 331.427,350.027 332.094,351.027 333.5,351.5C 336.2,353.234 338.2,355.568 339.5,358.5C 339.427,360.027 340.094,361.027 341.5,361.5C 342.5,361.833 343.167,362.5 343.5,363.5C 343.427,365.027 344.094,366.027 345.5,366.5C 342.038,367.482 338.371,367.815 334.5,367.5C 333.504,367.586 332.671,367.252 332,366.5C 329.002,362.008 325.835,357.675 322.5,353.5C 321.86,350.318 320.86,349.985 319.5,352.5C 315.511,357.821 311.178,362.821 306.5,367.5C 303.5,367.5 300.5,367.5 297.5,367.5C 297.5,351.167 297.5,334.833 297.5,318.5C 300.833,318.5 304.167,318.5 307.5,318.5 Z M 308.5,335.5 C 309.272,336.694 310.272,337.694 311.5,338.5C 311.427,340.027 312.094,341.027 313.5,341.5C 313.5,342.5 313.5,343.5 313.5,344.5C 312.094,344.973 311.427,345.973 311.5,347.5C 310.272,348.306 309.272,349.306 308.5,350.5C 307.167,345.5 307.167,340.5 308.5,335.5 Z"/></g>
<g><path style="opacity:0.849" fill="#ffaaa9" d="M 350.5,320.5 C 347.154,318.676 343.487,318.01 339.5,318.5C 339.222,327.553 339.556,336.553 340.5,345.5C 339.883,345.389 339.383,345.056 339,344.5C 338.623,340.981 338.123,337.481 337.5,334C 337.51,328.531 337.844,323.031 338.5,317.5C 341.378,316.953 344.211,316.62 347,316.5C 349.071,317.103 350.238,318.436 350.5,320.5 Z"/></g>
<g><path style="opacity:1" fill="#fff1f1" d="M 385.5,367.5 C 382.167,367.5 378.833,367.5 375.5,367.5C 366.818,357.48 358.484,347.147 350.5,336.5C 350.167,335.833 349.833,335.167 349.5,334.5C 349.44,333.957 349.107,333.624 348.5,333.5C 347.504,339.798 347.17,346.132 347.5,352.5C 346.833,352.167 346.167,351.833 345.5,351.5C 344.5,351.167 343.833,350.5 343.5,349.5C 343.446,347.368 342.446,346.035 340.5,345.5C 339.556,336.553 339.222,327.553 339.5,318.5C 343.487,318.01 347.154,318.676 350.5,320.5C 351.08,322.749 352.413,324.415 354.5,325.5C 358.18,329.183 361.514,333.183 364.5,337.5C 364.427,339.027 365.094,340.027 366.5,340.5C 367.5,340.833 368.167,341.5 368.5,342.5C 368.427,344.027 369.094,345.027 370.5,345.5C 371.5,345.833 372.167,346.5 372.5,347.5C 373.031,349.544 374.198,351.211 376,352.5C 376.5,340.838 376.667,329.171 376.5,317.5C 379.565,316.182 382.731,316.182 386,317.5C 386.828,334.338 386.662,351.005 385.5,367.5 Z"/></g>
<g><path style="opacity:0.388" fill="#fe8188" d="M 376.5,317.5 C 376.667,329.171 376.5,340.838 376,352.5C 374.198,351.211 373.031,349.544 372.5,347.5C 373.458,347.953 374.292,348.619 375,349.5C 375.547,342.823 375.381,336.156 374.5,329.5C 374.54,325.26 375.206,321.26 376.5,317.5 Z"/></g>
<g><path style="opacity:1" fill="#fefefe" d="M 426.5,318.5 C 427.5,318.833 428.167,319.5 428.5,320.5C 429.08,322.749 430.413,324.415 432.5,325.5C 433.833,325.833 433.833,326.167 432.5,326.5C 426.833,326.5 421.167,326.5 415.5,326.5C 415.5,340.167 415.5,353.833 415.5,367.5C 412.5,367.5 409.5,367.5 406.5,367.5C 406.5,353.833 406.5,340.167 406.5,326.5C 401.833,326.5 397.167,326.5 392.5,326.5C 392.5,323.833 392.5,321.167 392.5,318.5C 403.833,318.5 415.167,318.5 426.5,318.5 Z"/></g>
<g><path style="opacity:0.749" fill="#ff9fa0" d="M 307.5,318.5 C 308.906,318.973 309.573,319.973 309.5,321.5C 308.094,321.027 307.427,320.027 307.5,318.5 Z"/></g>
<g><path style="opacity:0.369" fill="#fe8187" d="M 102.5,318.5 C 102.573,320.027 101.906,321.027 100.5,321.5C 100.427,319.973 101.094,318.973 102.5,318.5 Z"/></g>
<g><path style="opacity:0.216" fill="#fd6b74" d="M 130.5,318.5 C 129.833,319.833 128.833,320.833 127.5,321.5C 127.5,319.5 128.5,318.5 130.5,318.5 Z"/></g>
<g><path style="opacity:0.02" fill="#fd4654" d="M 161.5,320.5 C 162.495,332.655 162.829,344.989 162.5,357.5C 169.022,357.177 175.355,357.51 181.5,358.5C 174.833,358.5 168.167,358.5 161.5,358.5C 161.5,345.833 161.5,333.167 161.5,320.5 Z"/></g>
<g><path style="opacity:0.871" fill="#ff9e9f" d="M 350.5,320.5 C 352.587,321.585 353.92,323.251 354.5,325.5C 352.413,324.415 351.08,322.749 350.5,320.5 Z"/></g>
<g><path style="opacity:0.863" fill="#ff979a" d="M 428.5,320.5 C 430.587,321.585 431.92,323.251 432.5,325.5C 430.413,324.415 429.08,322.749 428.5,320.5 Z"/></g>
<g><path style="opacity:0.804" fill="#ff9a9d" d="M 100.5,321.5 C 100.262,323.404 99.2624,324.738 97.5,325.5C 97.7376,323.596 98.7376,322.262 100.5,321.5 Z"/></g>
<g><path style="opacity:0.784" fill="#ff979b" d="M 127.5,321.5 C 127.262,323.404 126.262,324.738 124.5,325.5C 124.738,323.596 125.738,322.262 127.5,321.5 Z"/></g>
<g><path style="opacity:0.937" fill="#ffb7b8" d="M 196.5,319.5 C 195.415,321.587 193.749,322.92 191.5,323.5C 192.585,321.413 194.251,320.08 196.5,319.5 Z"/></g>
<g><path style="opacity:0.012" fill="#fd6971" d="M 204.5,326.5 C 207.833,325.167 211.167,325.167 214.5,326.5C 211.378,326.72 208.044,326.72 204.5,326.5 Z"/></g>
<g><path style="opacity:0.155" fill="#fd616c" d="M 272.5,329.5 C 270.085,328.186 267.252,327.519 264,327.5C 260.914,327.522 257.914,327.855 255,328.5C 254.831,341.673 254.331,354.673 253.5,367.5C 253.5,353.833 253.5,340.167 253.5,326.5C 260.532,326.17 267.532,326.503 274.5,327.5C 274.145,328.522 273.478,329.189 272.5,329.5 Z"/></g>
<g><path style="opacity:0.659" fill="#ff9294" d="M 95.5,327.5 C 95.573,329.027 94.9063,330.027 93.5,330.5C 93.427,328.973 94.0937,327.973 95.5,327.5 Z"/></g>
<g><path style="opacity:0.863" fill="#ff989a" d="M 218.5,328.5 C 220.833,328.833 222.167,330.167 222.5,332.5C 220.833,331.5 219.5,330.167 218.5,328.5 Z"/></g>
<g><path style="opacity:0.386" fill="#ff7f89" d="M 392.5,326.5 C 397.167,326.5 401.833,326.5 406.5,326.5C 406.5,340.167 406.5,353.833 406.5,367.5C 409.5,367.5 412.5,367.5 415.5,367.5C 412.41,369.515 409.076,369.848 405.5,368.5C 405.667,355.163 405.5,341.829 405,328.5C 400.732,327.86 396.565,327.193 392.5,326.5 Z"/></g>
<g><path style="opacity:0.831" fill="#ff9ea0" d="M 315.5,328.5 C 317.262,329.262 318.262,330.596 318.5,332.5C 316.738,331.738 315.738,330.404 315.5,328.5 Z"/></g>
<g><path style="opacity:0.136" fill="#fd5d69" d="M 432.5,326.5 C 427.36,327.488 422.026,327.821 416.5,327.5C 416.829,341.01 416.496,354.344 415.5,367.5C 415.5,353.833 415.5,340.167 415.5,326.5C 421.167,326.5 426.833,326.5 432.5,326.5 Z"/></g>
<g><path style="opacity:0.573" fill="#fe858a" d="M 91.5,332.5 C 91.573,334.027 90.9063,335.027 89.5,335.5C 89.427,333.973 90.0937,332.973 91.5,332.5 Z"/></g>
<g><path style="opacity:0.361" fill="#fd8085" d="M 270.5,331.5 C 270.573,333.027 269.906,334.027 268.5,334.5C 268.427,332.973 269.094,331.973 270.5,331.5 Z"/></g>
<g><path style="opacity:0.682" fill="#fdc0c3" d="M 349.5,334.5 C 348.527,336.948 348.194,339.615 348.5,342.5C 348.5,344.833 348.5,347.167 348.5,349.5C 348.737,350.791 348.404,351.791 347.5,352.5C 347.17,346.132 347.504,339.798 348.5,333.5C 349.107,333.624 349.44,333.957 349.5,334.5 Z"/></g>
<g><path style="opacity:0.064" fill="#fd505d" d="M 308.5,335.5 C 307.167,340.5 307.167,345.5 308.5,350.5C 308.217,351.289 307.717,351.956 307,352.5C 306.333,345.833 306.333,339.167 307,332.5C 308.039,333.244 308.539,334.244 308.5,335.5 Z"/></g>
<g><path style="opacity:0.651" fill="#ff9496" d="M 319.5,333.5 C 320.906,333.973 321.573,334.973 321.5,336.5C 320.094,336.027 319.427,335.027 319.5,333.5 Z"/></g>
<g><path style="opacity:0.808" fill="#ff999b" d="M 268.5,334.5 C 268.262,336.404 267.262,337.738 265.5,338.5C 265.738,336.596 266.738,335.262 268.5,334.5 Z"/></g>
<g><path style="opacity:0.032" fill="#fd4756" d="M 349.5,334.5 C 349.833,335.167 350.167,335.833 350.5,336.5C 349.833,338.5 349.167,340.5 348.5,342.5C 348.194,339.615 348.527,336.948 349.5,334.5 Z"/></g>
<g><path style="opacity:0.745" fill="#ffaaab" d="M 185.5,331.5 C 185.741,333.898 185.074,335.898 183.5,337.5C 183.259,335.102 183.926,333.102 185.5,331.5 Z"/></g>
<g><path style="opacity:0.741" fill="#ff999b" d="M 364.5,337.5 C 365.906,337.973 366.573,338.973 366.5,340.5C 365.094,340.027 364.427,339.027 364.5,337.5 Z"/></g>
<g><path style="opacity:0.439" fill="#fe8c91" d="M 87.5,337.5 C 87.573,339.027 86.9063,340.027 85.5,340.5C 85.427,338.973 86.0937,337.973 87.5,337.5 Z"/></g>
<g><path style="opacity:0.514" fill="#fd9298" d="M 225.5,338.5 C 226.833,341.167 226.833,343.833 225.5,346.5C 225.208,343.624 225.208,340.957 225.5,338.5 Z"/></g>
<g><path style="opacity:0.035" fill="#fd666d" d="M 311.5,338.5 C 312.906,338.973 313.573,339.973 313.5,341.5C 312.094,341.027 311.427,340.027 311.5,338.5 Z"/></g>
<g><path style="opacity:0.29" fill="#fe757d" d="M 234.5,333.5 C 235.991,336.186 236.657,339.186 236.5,342.5C 236.495,344.696 236.162,346.696 235.5,348.5C 235.587,343.463 235.254,338.463 234.5,333.5 Z"/></g>
<g><path style="opacity:0.216" fill="#fe7e86" d="M 193.5,338.5 C 193.423,342.215 193.756,345.881 194.5,349.5C 193.003,347.71 192.336,345.544 192.5,343C 192.508,341.293 192.842,339.793 193.5,338.5 Z"/></g>
<g><path style="opacity:0.655" fill="#fe8f92" d="M 263.5,340.5 C 263.573,342.027 262.906,343.027 261.5,343.5C 261.427,341.973 262.094,340.973 263.5,340.5 Z"/></g>
<g><path style="opacity:0.016" fill="#fd6a71" d="M 313.5,341.5 C 316.167,342.5 316.167,343.5 313.5,344.5C 313.5,343.5 313.5,342.5 313.5,341.5 Z"/></g>
<g><path style="opacity:0.729" fill="#ff8e92" d="M 83.5,342.5 C 83.2624,344.404 82.2624,345.738 80.5,346.5C 80.7376,344.596 81.7376,343.262 83.5,342.5 Z"/></g>
<g><path style="opacity:0.655" fill="#ff8e91" d="M 368.5,342.5 C 369.906,342.973 370.573,343.973 370.5,345.5C 369.094,345.027 368.427,344.027 368.5,342.5 Z"/></g>
<g><path style="opacity:0.275" fill="#fe727a" d="M 123.5,343.5 C 124.906,343.973 125.573,344.973 125.5,346.5C 124.094,346.027 123.427,345.027 123.5,343.5 Z"/></g>
<g><path style="opacity:0.125" fill="#fd5e68" d="M 260.5,344.5 C 260.833,345.833 261.167,347.167 261.5,348.5C 259.481,347.462 259.147,346.128 260.5,344.5 Z"/></g>
<g><path style="opacity:0.973" fill="#ff9e9e" d="M 340.5,345.5 C 342.446,346.035 343.446,347.368 343.5,349.5C 342.026,348.564 341.026,347.23 340.5,345.5 Z"/></g>
<g><path style="opacity:0.137" fill="#fb5a65" d="M 108.5,345.5 C 108.167,346.5 107.5,347.167 106.5,347.5C 106.5,346.167 107.167,345.5 108.5,345.5 Z"/></g>
<g><path style="opacity:0.494" fill="#ff979b" d="M 313.5,344.5 C 313.573,346.027 312.906,347.027 311.5,347.5C 311.427,345.973 312.094,344.973 313.5,344.5 Z"/></g>
<g><path style="opacity:0.694" fill="#ff9597" d="M 125.5,346.5 C 126.906,346.973 127.573,347.973 127.5,349.5C 126.094,349.027 125.427,348.027 125.5,346.5 Z"/></g>
<g><path style="opacity:0.456" fill="#fe878e" d="M 128.5,350.5 C 129.725,349.848 130.392,348.681 130.5,347C 130.258,342.375 129.924,337.875 129.5,333.5C 129.783,332.711 130.283,332.044 131,331.5C 131.667,338.833 131.667,346.167 131,353.5C 129.955,352.627 129.122,351.627 128.5,350.5 Z"/></g>
<g><path style="opacity:0.373" fill="#fd7c83" d="M 106.5,347.5 C 106.573,349.027 105.906,350.027 104.5,350.5C 104.427,348.973 105.094,347.973 106.5,347.5 Z"/></g>
<g><path style="opacity:0.733" fill="#ff9899" d="M 331.5,348.5 C 332.906,348.973 333.573,349.973 333.5,351.5C 332.094,351.027 331.427,350.027 331.5,348.5 Z"/></g>
<g><path style="opacity:0.031" fill="#fc626a" d="M 119.5,354.5 C 118.395,353.4 117.062,352.733 115.5,352.5C 115.783,351.711 116.283,351.044 117,350.5C 118.481,351.471 119.315,352.804 119.5,354.5 Z"/></g>
<g><path style="opacity:0.761" fill="#ff9d9f" d="M 276.5,350.5 C 277.906,350.973 278.573,351.973 278.5,353.5C 277.094,353.027 276.427,352.027 276.5,350.5 Z"/></g>
<g><path style="opacity:0.037" fill="#fc636a" d="M 322.5,353.5 C 321.609,352.89 320.609,352.557 319.5,352.5C 320.86,349.985 321.86,350.318 322.5,353.5 Z"/></g>
<g><path style="opacity:0.678" fill="#fe767b" d="M 348.5,349.5 C 349.844,351.185 349.677,352.852 348,354.5C 346.583,353.922 345.75,352.922 345.5,351.5C 346.167,351.833 346.833,352.167 347.5,352.5C 348.404,351.791 348.737,350.791 348.5,349.5 Z"/></g>
<g><path style="opacity:0.404" fill="#fd8187" d="M 102.5,352.5 C 102.573,354.027 101.906,355.027 100.5,355.5C 100.427,353.973 101.094,352.973 102.5,352.5 Z"/></g>
<g><path style="opacity:0.541" fill="#fe888c" d="M 220.5,355.5 C 220.027,356.906 219.027,357.573 217.5,357.5C 217.973,356.094 218.973,355.427 220.5,355.5 Z"/></g>
<g><path style="opacity:0.718" fill="#ff999c" d="M 280.5,355.5 C 281.906,355.973 282.573,356.973 282.5,358.5C 281.094,358.027 280.427,357.027 280.5,355.5 Z"/></g>
<g><path style="opacity:0.008" fill="#fd6169" d="M 186.5,356.5 C 187.906,356.973 188.573,357.973 188.5,359.5C 187.094,359.027 186.427,358.027 186.5,356.5 Z"/></g>
<g><path style="opacity:0.669" fill="#ffb9bc" d="M 161.5,358.5 C 168.167,358.5 174.833,358.5 181.5,358.5C 183.985,359.26 183.985,360.26 181.5,361.5C 175.062,359.85 168.395,358.85 161.5,358.5 Z"/></g>
<g><path style="opacity:0.722" fill="#ff9a9c" d="M 339.5,358.5 C 340.906,358.973 341.573,359.973 341.5,361.5C 340.094,361.027 339.427,360.027 339.5,358.5 Z"/></g>
<g><path style="opacity:0.004" fill="#fd5f68" d="M 271.5,360.5 C 272.906,360.973 273.573,361.973 273.5,363.5C 272.094,363.027 271.427,362.027 271.5,360.5 Z"/></g>
<g><path style="opacity:0.745" fill="#ff999b" d="M 284.5,360.5 C 285.906,360.973 286.573,361.973 286.5,363.5C 285.094,363.027 284.427,362.027 284.5,360.5 Z"/></g>
<g><path style="opacity:0.424" fill="#ff8d92" d="M 343.5,363.5 C 344.906,363.973 345.573,364.973 345.5,366.5C 344.094,366.027 343.427,365.027 343.5,363.5 Z"/></g>
<g><path style="opacity:0.342" fill="#ff6c74" d="M 66.5,367.5 C 69.8333,367.5 73.1667,367.5 76.5,367.5C 73.1667,370.167 69.8333,370.167 66.5,367.5 Z"/></g>
<g><path style="opacity:0.335" fill="#ff767c" d="M 93.5,364.5 C 93.5858,365.496 93.2524,366.329 92.5,367C 96.1516,367.499 99.8183,367.665 103.5,367.5C 103.082,368.222 102.416,368.722 101.5,369C 98.4698,369.288 95.6365,369.455 93,369.5C 89.7381,367.572 89.9048,365.905 93.5,364.5 Z"/></g>
<g><path style="opacity:0.328" fill="#fe6d76" d="M 130.5,367.5 C 133.833,367.5 137.167,367.5 140.5,367.5C 139.626,368.525 138.459,369.192 137,369.5C 135.584,368.427 134.25,368.427 133,369.5C 132.005,368.934 131.172,368.267 130.5,367.5 Z"/></g>
<g><path style="opacity:0.433" fill="#ff8388" d="M 286.5,363.5 C 288.727,364.401 289.727,366.067 289.5,368.5C 285.869,369.412 282.203,369.579 278.5,369C 277.944,368.617 277.611,368.117 277.5,367.5C 281.182,367.665 284.848,367.499 288.5,367C 287.177,366.184 286.511,365.017 286.5,363.5 Z"/></g>
<g><path style="opacity:0.323" fill="#fe757d" d="M 297.5,367.5 C 300.5,367.5 303.5,367.5 306.5,367.5C 304.316,368.266 301.982,368.933 299.5,369.5C 298.478,369.145 297.811,368.478 297.5,367.5 Z"/></g>
<g><path style="opacity:0.561" fill="#fe8186" d="M 203.5,368.5 C 207.5,368.5 211.5,368.5 215.5,368.5C 211.5,371.167 207.5,371.167 203.5,368.5 Z"/></g>
<g><path style="opacity:0.013" fill="#ff5b65" d="M 345.5,366.5 C 346.885,367.302 346.718,367.969 345,368.5C 341.879,369.536 338.713,369.703 335.5,369C 334.944,368.617 334.611,368.117 334.5,367.5C 338.371,367.815 342.038,367.482 345.5,366.5 Z"/></g>
<g><path style="opacity:0.024" fill="#ff5b64" d="M 375.5,367.5 C 378.833,367.5 382.167,367.5 385.5,367.5C 385.389,368.117 385.056,368.617 384.5,369C 381.833,369.667 379.167,369.667 376.5,369C 375.944,368.617 375.611,368.117 375.5,367.5 Z"/></g>
</svg>
